<svg xmlns="http://www.w3.org/2000/svg" version="1.1" viewBox="-5.0 -10.0 110.0 135.0">
 <g>
  <path d="m25.531 57.266c0.5 1.7031 1.1719 3.3438 2.0312 4.8906l-3.6875 3.6875c-0.60938 0.60938-0.60938 1.5938 0 2.2031l8.0781 8.0781c0.3125 0.3125 0.70312 0.45312 1.1094 0.45312s0.79688-0.15625 1.1094-0.45312l3.6875-3.6875c1.5625 0.84375 3.1875 1.5312 4.8906 2.0312v5.2188c0 0.85938 0.70312 1.5625 1.5625 1.5625h11.422c0.85938 0 1.5625-0.70312 1.5625-1.5625v-5.2188c1.7031-0.5 3.3281-1.1719 4.8906-2.0312l3.6875 3.6875c0.3125 0.3125 0.70312 0.45312 1.1094 0.45312s0.79688-0.15625 1.1094-0.45312l8.0781-8.0781c0.60938-0.60938 0.60938-1.5938 0-2.2031l-3.6875-3.6875c0.84375-1.5625 1.5312-3.1875 2.0312-4.8906h5.2188c0.85938 0 1.5625-0.70312 1.5625-1.5625v-11.422c0-0.85938-0.70312-1.5625-1.5625-1.5625h-5.2188c-0.5-1.7031-1.1719-3.3438-2.0312-4.8906l3.6875-3.6875c0.60938-0.60938 0.60938-1.5938 0-2.2031l-8.0781-8.0781c-0.60938-0.60938-1.5938-0.60938-2.2031 0l-3.6875 3.6875c-1.5625-0.84375-3.1875-1.5312-4.8906-2.0312v-5.2188c0-0.85938-0.70312-1.5625-1.5625-1.5625h-11.422c-0.85938 0-1.5625 0.70312-1.5625 1.5625v5.2188c-1.7031 0.5-3.3438 1.1719-4.8906 2.0312l-3.6875-3.6875c-0.60938-0.60938-1.5938-0.60938-2.2031 0l-8.0781 8.0781c-0.60938 0.60938-0.60938 1.5938 0 2.2031l3.6875 3.6875c-0.84375 1.5625-1.5312 3.1875-2.0312 4.8906h-5.2188c-0.85938 0-1.5625 0.70312-1.5625 1.5625v11.422c0 0.85938 0.70312 1.5625 1.5625 1.5625h5.2188zm-3.6562-11.406h4.8281c0.20312 0 0.39062-0.046875 0.5625-0.10938 0.0625-0.015625 0.10938-0.0625 0.17188-0.09375 0.10938-0.0625 0.21875-0.125 0.3125-0.20312 0.046875-0.046875 0.09375-0.09375 0.14062-0.15625 0.078125-0.09375 0.14062-0.1875 0.1875-0.28125 0.03125-0.0625 0.0625-0.14062 0.09375-0.20312 0.015625-0.046875 0.046875-0.078125 0.0625-0.14062 0.53125-2.2188 1.4062-4.3281 2.5938-6.2812 0.015625-0.03125 0.03125-0.078125 0.046875-0.125 0.046875-0.09375 0.078125-0.1875 0.10938-0.29688 0.03125-0.09375 0.046875-0.1875 0.0625-0.29688v-0.28125c0-0.10938-0.03125-0.20312-0.0625-0.29688s-0.078125-0.17188-0.10938-0.25c-0.046875-0.09375-0.10938-0.1875-0.1875-0.28125-0.03125-0.03125-0.03125-0.078125-0.0625-0.09375l-3.4219-3.4219 5.8594-5.8594 3.4219 3.4219c0.14062 0.14062 0.29688 0.23438 0.46875 0.3125 0.03125 0.015625 0.078125 0.03125 0.10938 0.046875 0.17188 0.0625 0.34375 0.10938 0.53125 0.10938s0.34375-0.046875 0.51562-0.10938c0.046875-0.015625 0.09375-0.03125 0.14062-0.0625s0.10938-0.03125 0.15625-0.0625c1.9531-1.1875 4.0625-2.0625 6.2812-2.5938 0.046875 0 0.078125-0.046875 0.10938-0.046875 0.10938-0.03125 0.1875-0.078125 0.28125-0.14062 0.078125-0.046875 0.17188-0.09375 0.23438-0.15625 0.078125-0.0625 0.14062-0.14062 0.20312-0.21875s0.125-0.15625 0.17188-0.25 0.078125-0.17188 0.09375-0.26562c0.03125-0.10938 0.046875-0.20312 0.0625-0.3125 0-0.046875 0.03125-0.078125 0.03125-0.125v-4.8281h8.2969v4.8281s0.015625 0.078125 0.03125 0.125c0 0.10938 0.03125 0.20312 0.0625 0.3125 0.03125 0.09375 0.0625 0.1875 0.10938 0.28125s0.10938 0.17188 0.15625 0.25c0.0625 0.078125 0.125 0.15625 0.20312 0.21875s0.15625 0.10938 0.23438 0.15625l0.28125 0.14062c0.046875 0 0.078125 0.046875 0.10938 0.046875 2.2188 0.53125 4.3281 1.4062 6.2812 2.5938 0.046875 0.03125 0.10938 0.046875 0.15625 0.0625s0.078125 0.046875 0.125 0.0625c0.17188 0.0625 0.34375 0.10938 0.51562 0.10938s0.35938-0.046875 0.53125-0.10938c0.03125 0 0.078125-0.03125 0.10938-0.046875 0.17188-0.078125 0.32812-0.17188 0.45312-0.3125l3.4219-3.4219 5.8594 5.8594-3.4219 3.4219s-0.046875 0.078125-0.0625 0.10938c-0.078125 0.078125-0.125 0.17188-0.17188 0.26562s-0.09375 0.17188-0.125 0.26562-0.046875 0.1875-0.0625 0.29688c0 0.09375-0.015625 0.1875 0 0.29688 0 0.09375 0.03125 0.1875 0.0625 0.28125 0.03125 0.10938 0.0625 0.20312 0.10938 0.29688 0.015625 0.03125 0.015625 0.078125 0.046875 0.125 1.1875 1.9531 2.0625 4.0625 2.5938 6.2812 0 0.046875 0.046875 0.078125 0.0625 0.125 0.03125 0.078125 0.0625 0.14062 0.09375 0.21875 0.046875 0.10938 0.10938 0.1875 0.1875 0.28125 0.046875 0.0625 0.09375 0.10938 0.14062 0.15625 0.09375 0.078125 0.1875 0.14062 0.29688 0.20312 0.0625 0.03125 0.10938 0.0625 0.17188 0.09375 0.17188 0.0625 0.35938 0.10938 0.5625 0.10938h4.8281v8.2969h-4.8281s-0.078125 0.015625-0.125 0.03125c-0.10938 0-0.20312 0.03125-0.29688 0.0625s-0.1875 0.0625-0.28125 0.10938c-0.078125 0.046875-0.15625 0.09375-0.23438 0.15625s-0.15625 0.125-0.23438 0.21875c-0.0625 0.0625-0.10938 0.14062-0.15625 0.23438-0.0625 0.09375-0.10938 0.1875-0.14062 0.29688 0 0.046875-0.046875 0.0625-0.046875 0.10938-0.53125 2.2188-1.4062 4.3281-2.5938 6.2812-0.015625 0.03125-0.03125 0.078125-0.046875 0.125-0.046875 0.09375-0.078125 0.1875-0.10938 0.29688-0.03125 0.09375-0.046875 0.1875-0.0625 0.28125v0.29688c0 0.09375 0.03125 0.20312 0.0625 0.29688s0.078125 0.17188 0.125 0.26562 0.10938 0.1875 0.17188 0.26562c0.03125 0.03125 0.03125 0.078125 0.0625 0.10938l3.4219 3.4219-5.8594 5.8594-3.4219-3.4219s-0.0625-0.046875-0.10938-0.0625c-0.078125-0.078125-0.17188-0.125-0.26562-0.1875-0.078125-0.046875-0.17188-0.09375-0.25-0.10938-0.09375-0.03125-0.20312-0.046875-0.29688-0.0625-0.09375 0-0.1875-0.015625-0.28125 0-0.09375 0-0.1875 0.03125-0.29688 0.0625-0.09375 0.03125-0.1875 0.0625-0.29688 0.10938-0.046875 0.015625-0.078125 0.015625-0.125 0.046875-1.9531 1.1875-4.0625 2.0625-6.2812 2.5938-0.046875 0-0.078125 0.046875-0.10938 0.046875-0.10938 0.03125-0.1875 0.078125-0.28125 0.14062-0.078125 0.046875-0.17188 0.09375-0.23438 0.15625-0.078125 0.0625-0.14062 0.14062-0.20312 0.21875s-0.125 0.15625-0.15625 0.25c-0.046875 0.09375-0.078125 0.17188-0.10938 0.28125-0.03125 0.09375-0.046875 0.20312-0.0625 0.3125 0 0.046875-0.03125 0.078125-0.03125 0.125v4.8281h-8.2969v-4.8281s-0.015625-0.078125-0.03125-0.125c0-0.10938-0.03125-0.20312-0.0625-0.3125-0.03125-0.09375-0.0625-0.1875-0.09375-0.26562-0.046875-0.09375-0.10938-0.17188-0.17188-0.25s-0.125-0.15625-0.20312-0.21875-0.15625-0.10938-0.23438-0.15625l-0.28125-0.14062c-0.046875 0-0.078125-0.046875-0.10938-0.046875-2.2188-0.53125-4.3281-1.4062-6.2812-2.5938-0.03125-0.015625-0.078125-0.03125-0.125-0.046875-0.09375-0.046875-0.1875-0.078125-0.29688-0.10938-0.09375-0.03125-0.1875-0.046875-0.28125-0.0625h-0.28125c-0.10938 0-0.20312 0.03125-0.29688 0.0625s-0.17188 0.0625-0.25 0.10938c-0.09375 0.046875-0.1875 0.10938-0.28125 0.1875-0.03125 0.03125-0.0625 0.03125-0.09375 0.0625l-3.4219 3.4219-5.8594-5.8594 3.4219-3.4219s0.046875-0.0625 0.0625-0.09375c0.078125-0.09375 0.125-0.17188 0.1875-0.28125 0.046875-0.078125 0.09375-0.15625 0.10938-0.25 0.03125-0.09375 0.046875-0.20312 0.0625-0.29688 0-0.09375 0.015625-0.1875 0-0.28125 0-0.09375-0.03125-0.1875-0.0625-0.29688-0.03125-0.09375-0.0625-0.20312-0.10938-0.29688-0.015625-0.046875-0.015625-0.078125-0.046875-0.125-1.1875-1.9531-2.0625-4.0625-2.5938-6.2812 0-0.046875-0.046875-0.078125-0.046875-0.10938-0.03125-0.10938-0.078125-0.1875-0.14062-0.28125-0.046875-0.078125-0.09375-0.17188-0.15625-0.23438-0.0625-0.078125-0.14062-0.14062-0.21875-0.20312s-0.15625-0.125-0.23438-0.15625c-0.09375-0.046875-0.1875-0.078125-0.28125-0.10938s-0.20312-0.046875-0.3125-0.0625c-0.046875 0-0.078125-0.03125-0.125-0.03125h-4.8281z"/>
  <path d="m50 65.625c8.6094 0 15.625-7.0156 15.625-15.625s-7.0156-15.625-15.625-15.625-15.625 7.0156-15.625 15.625 7.0156 15.625 15.625 15.625zm0-28.125c6.8906 0 12.5 5.6094 12.5 12.5s-5.6094 12.5-12.5 12.5-12.5-5.6094-12.5-12.5 5.6094-12.5 12.5-12.5z"/>
  <path d="m22.375 22.375c14.375-14.375 37.234-15.172 52.562-2.4375l-2.9375 0.1875c-0.85938 0.046875-1.5156 0.79688-1.4531 1.6562 0.046875 0.82812 0.73438 1.4688 1.5625 1.4688h0.09375l6.6094-0.42188c0.078125 0 0.14062-0.046875 0.21875-0.0625 0.10938-0.015625 0.21875-0.046875 0.3125-0.078125 0.10938-0.046875 0.1875-0.125 0.28125-0.1875 0.0625-0.046875 0.125-0.0625 0.1875-0.125 0 0 0-0.03125 0.03125-0.046875 0.078125-0.09375 0.14062-0.1875 0.1875-0.29688 0.046875-0.078125 0.09375-0.14062 0.125-0.21875s0.03125-0.17188 0.046875-0.26562c0.015625-0.10938 0.046875-0.21875 0.046875-0.32812v-0.046875l-0.42188-6.6094c-0.0625-0.85938-0.8125-1.5312-1.6562-1.4688-0.85938 0.046875-1.5156 0.79688-1.4531 1.6562l0.17188 2.7656c-16.531-13.734-41.203-12.859-56.719 2.6562-10.25 10.25-14.484 24.844-11.328 39.016 0.15625 0.73438 0.8125 1.2188 1.5312 1.2188 0.10938 0 0.23438 0 0.34375-0.03125 0.84375-0.1875 1.375-1.0156 1.1875-1.8594-2.9219-13.125 1-26.625 10.5-36.125z"/>
  <path d="m91.172 40.828c-0.1875-0.84375-1.0312-1.375-1.8594-1.1875-0.84375 0.1875-1.375 1.0156-1.1875 1.8594 2.9219 13.125-1 26.625-10.5 36.125-14.375 14.375-37.234 15.172-52.562 2.4375l2.9375-0.1875c0.85938-0.046875 1.5156-0.79688 1.4688-1.6562-0.0625-0.85938-0.79688-1.5-1.6562-1.4688l-6.6094 0.42188c-0.078125 0-0.14062 0.046875-0.21875 0.0625-0.10938 0.015625-0.21875 0.046875-0.32812 0.09375s-0.1875 0.125-0.28125 0.1875c-0.0625 0.046875-0.125 0.0625-0.1875 0.125 0 0 0 0.03125-0.03125 0.046875-0.078125 0.078125-0.125 0.1875-0.1875 0.28125-0.046875 0.078125-0.10938 0.14062-0.14062 0.23438-0.03125 0.078125-0.03125 0.17188-0.046875 0.26562-0.015625 0.10938-0.046875 0.21875-0.046875 0.34375v0.046875l0.42188 6.6094c0.046875 0.82812 0.73438 1.4688 1.5625 1.4688h0.09375c0.85938-0.046875 1.5156-0.79688 1.4688-1.6562l-0.17188-2.7656c7.7812 6.4531 17.344 9.7031 26.922 9.7031 10.797 0 21.609-4.1094 29.828-12.344 10.25-10.25 14.484-24.844 11.344-39.016z"/>
 </g>
<text x="0.0" y="117.5" font-size="5.0" font-weight="bold" font-family="Arbeit Regular, Helvetica, Arial-Unicode, Arial, Sans-serif" fill="#000000">Created by Yosua Bungaran</text><text x="0.0" y="122.5" font-size="5.0" font-weight="bold" font-family="Arbeit Regular, Helvetica, Arial-Unicode, Arial, Sans-serif" fill="#000000">from Noun Project</text></svg>