<?xml version="1.0" standalone="no"?>
<!DOCTYPE svg PUBLIC "-//W3C//DTD SVG 20010904//EN"
 "http://www.w3.org/TR/2001/REC-SVG-20010904/DTD/svg10.dtd">
<svg version="1.0" xmlns="http://www.w3.org/2000/svg"
 width="1000.000000pt" height="1000.000000pt" viewBox="0 0 1000.000000 1000.000000"
 preserveAspectRatio="xMidYMid meet">
<metadata>
Created by potrace 1.14, written by Peter Selinger 2001-2017
</metadata>
<g transform="translate(0.000000,1000.000000) scale(0.100000,-0.100000)"
fill="#000000" stroke="none">
<path d="M4912 9720 c-20 -8 -275 -78 -312 -85 -8 -2 -16 -4 -17 -5 -2 -2 -7
-4 -13 -5 -5 -1 -11 -3 -12 -5 -2 -1 -10 -3 -18 -5 -8 -1 -112 -28 -230 -60
-118 -32 -219 -58 -225 -60 -5 -1 -17 -5 -25 -8 -11 -5 -327 -88 -385 -102 -5
-1 -17 -5 -25 -8 -13 -4 -44 -13 -85 -22 -67 -16 -147 -39 -176 -50 -20 -8
-39 -11 -42 -8 -3 3 -12 1 -19 -3 -7 -5 -17 -9 -23 -10 -5 -1 -37 -9 -70 -18
-33 -9 -112 -30 -175 -47 -63 -17 -144 -39 -180 -49 -36 -11 -110 -31 -165
-45 -55 -14 -143 -37 -195 -51 -52 -14 -102 -27 -110 -29 -49 -11 -76 -18 -85
-24 -5 -3 -17 -6 -25 -7 -8 0 -22 -4 -30 -7 -8 -3 -44 -13 -80 -22 -36 -9 -76
-20 -90 -25 -14 -6 -34 -11 -45 -13 -11 -2 -40 -9 -65 -16 -25 -7 -52 -15 -60
-16 -8 -2 -67 -18 -130 -35 -63 -17 -162 -43 -220 -59 -365 -98 -426 -115
-439 -127 -13 -11 -15 -220 -15 -1459 -1 -1324 0 -1448 15 -1461 9 -8 27 -17
41 -19 13 -3 41 -11 62 -18 36 -12 39 -16 41 -58 4 -50 13 -74 120 -294 126
-261 145 -303 145 -314 0 -6 4 -11 10 -11 5 0 12 -16 16 -35 3 -19 9 -37 13
-40 8 -4 6 -166 -3 -370 -3 -66 -8 -181 -11 -255 -3 -74 -8 -173 -10 -220 -3
-47 -7 -132 -10 -190 -3 -58 -7 -145 -10 -195 -3 -49 -7 -133 -10 -185 -9
-176 -19 -219 -75 -307 -8 -12 -11 -25 -8 -28 6 -7 367 -9 374 -3 1 2 5 28 8
58 9 87 23 199 31 250 2 14 6 50 9 80 3 30 8 64 10 75 2 11 7 54 11 95 4 41 9
84 11 95 2 11 6 38 8 60 11 101 17 152 21 175 8 52 19 153 24 220 1 13 2 13
11 0 9 -14 8 -71 -5 -305 -2 -49 -7 -146 -10 -215 -4 -69 -8 -154 -10 -190 -2
-36 -7 -132 -10 -215 -4 -82 -7 -152 -7 -155 -2 -35 -5 -35 252 -32 235 2 250
4 250 21 0 13 -22 29 -78 56 -42 20 -84 46 -93 58 -17 21 -18 70 -3 197 3 30
8 75 10 100 2 25 6 68 9 95 2 28 7 79 10 115 4 36 8 75 10 88 2 13 7 67 10
120 4 53 9 105 11 116 2 10 6 53 9 95 3 42 8 92 10 111 3 19 7 69 11 110 3 41
7 93 9 115 10 109 15 167 20 245 12 169 24 317 30 360 3 19 7 55 10 80 9 92
10 93 56 79 19 -6 47 -13 63 -15 16 -2 35 -9 42 -15 8 -6 14 -9 14 -5 0 3 12
1 28 -5 15 -6 36 -13 47 -15 11 -2 52 -13 90 -24 39 -12 77 -23 85 -25 8 -2
65 -18 125 -35 61 -18 121 -34 134 -36 13 -3 31 -9 40 -13 9 -5 18 -9 21 -9 3
0 25 -5 50 -12 25 -7 52 -14 60 -16 8 -1 150 -42 315 -89 165 -48 332 -95 370
-106 39 -11 75 -21 80 -23 54 -16 103 -29 115 -31 8 -2 15 -4 15 -5 0 -1 7 -3
15 -5 8 -1 35 -8 60 -16 25 -7 50 -14 55 -15 6 -1 138 -39 295 -84 364 -105
381 -109 411 -97 19 7 199 57 259 71 8 2 42 11 75 20 33 9 67 18 75 20 8 2 35
10 60 17 25 7 50 14 55 14 6 1 30 7 55 14 25 8 52 15 60 16 8 2 15 4 15 5 0 1
7 3 15 5 8 1 35 8 60 16 25 7 50 13 55 15 6 1 30 7 55 14 25 7 52 14 60 15 8
1 22 5 30 8 8 3 44 14 80 23 36 9 72 18 80 20 70 18 546 147 585 159 28 8 59
17 70 19 11 2 72 19 135 36 63 17 122 33 130 35 28 7 165 44 198 54 18 5 35
10 37 10 3 1 6 1 8 2 1 0 9 2 17 4 8 2 40 10 70 19 30 8 150 40 265 70 116 31
235 64 265 73 30 9 62 18 70 19 8 1 33 8 55 14 59 16 73 20 93 24 9 2 25 7 34
11 13 5 18 0 23 -27 6 -38 13 -113 20 -208 6 -98 16 -230 30 -385 4 -44 8 -96
10 -115 2 -19 6 -62 9 -95 10 -92 17 -166 20 -210 8 -93 17 -192 21 -215 9
-57 15 -186 10 -210 -4 -19 -22 -33 -75 -59 -40 -19 -67 -38 -64 -45 3 -9 56
-12 196 -12 l192 1 -1 35 c-1 19 -4 80 -7 135 -7 130 -16 317 -21 430 -2 50
-4 90 -5 90 -1 0 -3 35 -4 78 -2 42 0 77 4 77 7 0 16 -55 26 -160 4 -37 13
-109 19 -150 2 -14 6 -50 10 -80 3 -30 8 -71 10 -90 3 -19 7 -57 10 -85 3 -27
7 -61 9 -75 2 -14 7 -52 11 -85 3 -33 8 -74 11 -91 l6 -31 138 0 c107 0 140 3
144 13 3 7 0 16 -6 20 -22 14 -47 92 -52 164 -3 41 -9 134 -12 205 -3 72 -7
159 -9 195 -7 141 -24 514 -30 640 -2 59 26 184 45 200 3 3 14 23 25 45 54
117 147 312 155 327 10 18 7 194 -5 238 -3 14 -8 41 -10 60 -3 19 -7 49 -10
65 -15 93 -18 112 -20 130 -1 11 -4 34 -8 50 -3 17 -9 48 -12 70 -4 22 -9 54
-11 70 -3 17 -6 37 -8 45 -1 8 -6 38 -10 65 -11 67 -25 92 -66 113 l-33 19 -2
999 c-1 549 -3 1002 -3 1006 -2 6 -76 30 -92 30 -3 0 -12 4 -21 9 -9 4 -27 10
-40 12 -13 3 -44 11 -69 18 -25 7 -52 14 -60 15 -13 3 -433 116 -665 180 -49
14 -97 26 -105 29 -8 2 -60 15 -115 30 -55 15 -122 33 -150 40 -27 7 -77 20
-110 30 -33 9 -69 18 -80 21 -11 2 -144 38 -295 79 -151 42 -282 78 -290 79
-28 7 -254 67 -395 105 -125 34 -177 48 -210 57 -5 1 -80 21 -165 44 -85 23
-162 44 -170 45 -8 2 -15 4 -15 5 0 1 -7 3 -15 5 -8 1 -35 8 -60 15 -25 7 -53
14 -62 15 -10 2 -22 6 -26 9 -5 3 -19 7 -33 10 -13 3 -76 19 -139 36 -167 46
-183 50 -204 55 -10 2 -33 9 -50 14 -17 6 -42 12 -56 15 -14 2 -47 12 -75 20
-56 18 -80 19 -113 6z m9 -2515 c0 -1329 -1 -2419 -3 -2420 -2 -2 -35 5 -73
16 -39 11 -77 22 -85 24 -8 2 -17 4 -20 5 -3 1 -9 3 -15 4 -5 1 -17 5 -25 8
-8 4 -60 18 -115 33 -55 15 -111 31 -125 35 -21 8 -217 63 -535 152 -38 10
-101 28 -140 39 -38 11 -77 22 -85 24 -8 2 -40 11 -70 20 -30 9 -62 18 -70 20
-101 25 -811 229 -827 237 -11 6 -26 7 -32 4 -6 -4 -11 -3 -11 2 0 5 -6 9 -12
10 -7 0 -60 13 -118 29 l-105 30 3 34 c7 92 119 346 181 409 26 27 49 92 46
134 -2 22 -12 88 -24 146 -12 58 -24 116 -26 130 -4 23 -8 37 -19 88 -9 39
-38 179 -42 202 -2 14 -7 36 -10 50 -3 14 -8 39 -11 55 -2 17 -6 37 -9 45 -3
8 -8 26 -10 40 -10 63 -28 112 -45 120 -22 12 -61 18 -169 25 -47 2 -95 7
-108 10 -13 2 -43 5 -68 6 -24 2 -44 6 -44 10 0 3 11 32 25 63 14 31 27 71 31
88 14 76 3 212 -22 260 -8 15 -14 30 -13 33 1 3 -4 19 -11 35 -14 33 -11 33
-165 30 -111 -2 -118 -10 -146 -165 -20 -115 -22 -225 -4 -305 13 -59 12 -91
-4 -111 -9 -11 -63 -37 -121 -58 -215 -79 -222 -86 -246 -218 -9 -48 -18 -101
-20 -118 -1 -16 -5 -41 -8 -55 -3 -14 -7 -41 -10 -60 -3 -19 -7 -44 -10 -55
-2 -11 -7 -42 -10 -68 -4 -27 -9 -56 -10 -65 -4 -18 -17 -104 -21 -137 -2 -11
-8 -49 -14 -85 -12 -75 -23 -150 -24 -167 0 -7 -3 -13 -6 -13 -17 0 -81 22
-82 28 -1 9 -1 2773 0 2789 1 10 44 27 101 38 8 2 58 15 110 30 52 15 102 28
110 30 8 2 44 11 80 20 36 9 70 18 75 19 6 2 34 10 63 19 30 9 57 16 60 15 4
-1 14 2 22 5 8 3 51 16 95 27 44 12 105 28 135 36 30 9 62 17 70 19 8 2 30 8
48 14 18 5 33 10 35 10 1 0 9 2 17 4 14 5 429 115 460 123 17 4 43 11 195 52
61 17 153 41 205 55 52 14 122 33 155 42 61 17 127 34 155 40 8 2 15 4 15 5 0
1 7 3 15 5 8 2 67 18 130 35 63 18 122 34 130 35 8 2 85 23 170 45 85 23 162
44 170 46 8 2 74 19 145 39 72 19 137 37 145 39 8 2 22 6 30 9 17 7 233 65
265 71 11 2 54 14 95 25 41 12 98 26 125 32 28 6 54 15 60 20 5 5 13 5 18 0 4
-4 8 -1096 8 -2426z m166 2409 c88 -24 207 -56 218 -58 6 -2 30 -9 55 -16 25
-7 52 -14 60 -15 8 -1 22 -5 30 -8 8 -4 60 -18 115 -33 103 -27 234 -62 410
-109 55 -15 105 -28 110 -29 6 -1 16 -5 23 -10 7 -4 16 -6 18 -3 3 3 30 -4 59
-14 30 -10 61 -19 69 -19 9 0 35 -6 58 -14 24 -7 81 -23 128 -36 47 -12 92
-25 100 -28 8 -3 23 -7 32 -8 9 -2 81 -21 160 -43 149 -40 195 -52 214 -57 7
-1 52 -13 100 -27 49 -14 103 -28 119 -32 17 -5 35 -9 40 -11 6 -2 19 -5 30
-8 11 -3 47 -12 80 -21 33 -9 67 -18 75 -20 8 -3 92 -25 185 -50 94 -25 213
-57 265 -72 52 -14 100 -26 105 -27 6 -2 28 -8 50 -14 64 -19 222 -62 242 -65
10 -2 25 -7 33 -10 8 -4 44 -13 80 -22 36 -8 72 -17 80 -20 8 -2 73 -20 143
-39 71 -19 132 -37 135 -41 4 -4 7 -436 8 -961 l0 -953 -25 6 c-37 8 -81 32
-82 43 -1 6 -2 16 -3 23 -1 6 3 32 9 57 23 95 -7 330 -44 346 -9 4 -54 8 -101
9 -80 2 -85 1 -97 -22 -43 -84 -50 -202 -18 -297 14 -39 23 -71 22 -73 -2 -1
-30 -5 -63 -7 -249 -20 -248 -20 -259 -93 -4 -26 -6 -48 -5 -48 1 0 -3 -12 -8
-26 -6 -14 -13 -43 -17 -65 -4 -21 -8 -43 -9 -49 -3 -12 -16 -72 -21 -100 -2
-11 -4 -20 -5 -20 -1 0 -3 -11 -5 -25 -2 -14 -12 -68 -23 -120 -37 -174 -36
-205 6 -250 17 -18 84 -133 88 -150 0 -3 6 -18 13 -35 23 -54 60 -187 55 -200
-3 -6 -35 -19 -72 -27 -37 -9 -101 -26 -142 -37 -41 -12 -86 -24 -100 -27 -14
-2 -36 -9 -50 -13 -14 -5 -63 -19 -110 -31 -47 -12 -133 -35 -192 -51 -60 -17
-116 -32 -125 -34 -10 -2 -52 -13 -93 -25 -41 -11 -83 -23 -93 -25 -10 -2 -86
-23 -169 -45 -83 -23 -185 -50 -227 -61 -42 -11 -92 -25 -111 -30 -19 -5 -42
-11 -50 -13 -38 -10 -182 -49 -250 -68 -41 -11 -79 -21 -85 -23 -23 -5 -75
-19 -156 -41 -47 -14 -95 -26 -105 -29 -10 -2 -59 -15 -109 -29 -49 -15 -101
-28 -115 -31 -14 -3 -56 -14 -95 -25 -38 -12 -80 -23 -92 -26 -30 -6 -456
-121 -517 -139 -27 -9 -52 -13 -55 -9 -3 3 -6 1094 -6 2425 -1 1916 2 2419 12
2419 6 0 38 -7 70 -16z"/>
<path d="M4415 9159 c-44 -10 -95 -21 -114 -24 -18 -4 -41 -8 -50 -11 -9 -2
-79 -17 -156 -34 -77 -17 -149 -33 -160 -36 -40 -9 -121 -26 -140 -29 -11 -2
-20 -4 -20 -5 0 -2 -9 -4 -20 -5 -11 -2 -49 -10 -85 -19 -36 -9 -81 -19 -100
-21 -19 -3 -48 -10 -65 -15 -16 -5 -43 -11 -60 -13 -16 -3 -49 -10 -73 -16
-24 -7 -55 -14 -70 -16 -15 -2 -36 -6 -47 -9 -11 -3 -62 -14 -114 -25 -51 -11
-108 -30 -125 -41 -41 -25 -83 -100 -92 -165 -8 -57 -8 -1703 -1 -1780 9 -80
45 -147 95 -174 13 -7 44 -14 70 -16 97 -8 199 -15 262 -20 36 -2 94 -6 130
-9 36 -3 99 -8 141 -11 41 -2 109 -7 150 -11 102 -8 149 -12 257 -19 144 -9
168 -12 180 -19 6 -3 13 -2 17 4 4 6 11 8 16 4 5 -3 36 -7 67 -10 31 -2 87 -6
124 -9 84 -7 127 9 163 63 25 38 30 54 41 117 5 31 6 2185 1 2220 -12 78 -64
163 -101 166 -6 0 -18 2 -26 3 -8 1 -51 -6 -95 -15z m120 -99 c20 -38 26 -75
25 -145 -1 -33 -1 -64 -1 -70 0 -8 0 -286 0 -355 0 -8 0 -62 0 -120 1 -58 0
-112 0 -120 0 -18 0 -147 0 -175 1 -11 1 -65 0 -120 0 -55 0 -104 0 -110 0
-47 1 -223 0 -235 0 -8 0 -98 0 -200 0 -102 0 -192 0 -200 0 -8 0 -62 0 -120
1 -58 0 -112 0 -120 0 -8 0 -47 1 -86 1 -75 -4 -114 -23 -154 -22 -46 -32 -51
-99 -45 -65 5 -159 12 -263 20 -33 2 -96 7 -140 10 -44 4 -105 8 -135 10 -30
2 -93 6 -139 9 -45 3 -102 8 -125 11 -22 2 -86 7 -141 11 -55 4 -116 8 -135 9
-19 2 -78 6 -130 9 -157 10 -173 13 -197 43 -12 15 -25 49 -28 76 -6 43 -11
1366 -5 1392 1 6 1 15 0 20 -1 6 -2 85 -2 176 0 174 9 230 42 271 18 24 82 48
139 54 14 1 27 3 29 4 1 1 5 3 10 4 13 3 165 37 282 63 63 14 122 26 130 28 8
2 49 11 90 20 41 9 83 18 93 21 21 5 40 9 92 19 22 5 45 10 50 11 6 2 24 6 40
9 17 3 50 11 75 16 25 6 56 13 70 15 14 3 45 10 70 15 25 6 56 13 70 16 40 8
44 9 65 16 11 3 36 8 56 11 19 3 46 9 59 14 34 13 59 4 75 -28z"/>
<path d="M3864 8482 c-7 -4 -10 -63 -8 -157 1 -82 2 -150 3 -151 0 0 21 2 46
6 l45 7 1 -56 c0 -31 1 -78 2 -106 l2 -50 40 2 c22 1 56 4 75 7 19 2 37 5 40
5 4 1 5 410 1 447 -1 12 -86 31 -174 39 -26 2 -51 6 -55 9 -5 3 -13 2 -18 -2z"/>
<path d="M3682 8365 c-40 -6 -74 -9 -76 -7 -2 2 -7 -6 -11 -17 -3 -12 -12 -21
-19 -21 -10 0 -13 -63 -13 -302 -1 -183 3 -310 9 -322 6 -10 29 -38 52 -61 47
-47 121 -128 216 -235 36 -41 90 -99 120 -130 l55 -57 130 1 130 1 0 73 0 74
-155 69 c-85 38 -177 78 -204 90 -47 20 -48 21 -26 36 24 17 37 15 155 -17
166 -45 191 -51 210 -53 19 -2 20 4 20 111 0 62 -2 117 -5 121 -5 8 -256 -67
-319 -96 -19 -8 -65 -36 -103 -60 -66 -43 -98 -49 -98 -21 0 13 99 78 119 78
6 0 11 4 11 8 0 5 6 9 13 10 6 0 41 11 77 24 36 13 106 35 155 48 105 27 116
34 111 66 -3 13 0 24 5 24 6 0 7 6 2 12 -4 7 -7 31 -8 53 0 34 -4 41 -22 43
-21 3 -28 13 -24 35 2 9 -214 1 -229 -8 -6 -4 -10 -51 -10 -106 0 -59 -4 -99
-10 -99 -13 0 -12 -6 -14 210 -1 102 -5 190 -9 197 -4 7 -22 9 -50 6 -23 -4
-61 -7 -84 -7 -24 -1 -43 -4 -43 -8 0 -5 -6 -7 -12 -5 -10 1 -14 -45 -16 -202
-2 -201 -2 -204 20 -222 35 -28 41 -33 71 -52 27 -17 29 -37 3 -37 -7 0 -37
23 -67 51 l-54 50 0 215 c0 119 2 218 5 222 7 9 29 14 67 14 28 0 34 4 41 32
5 17 6 40 1 52 -4 11 -4 26 0 33 10 16 1 71 -12 71 -5 0 -15 6 -21 13 -9 11
-24 12 -84 2z"/>
<path d="M3422 8080 l-29 -15 1 -183 c1 -165 -1 -183 -16 -188 -16 -5 -24 -32
-18 -59 7 -27 4 -275 -3 -275 -4 0 -4 -8 0 -17 5 -10 8 -42 7 -70 l-2 -53 32
0 c33 0 34 1 115 131 23 37 58 81 78 98 33 28 38 30 53 16 16 -15 15 -20 -16
-78 -18 -34 -42 -85 -53 -114 l-20 -51 140 -1 c76 -1 139 1 139 4 0 3 -66 112
-147 242 l-147 237 -1 185 c0 102 -4 192 -9 199 -10 16 -67 12 -104 -8z"/>
<path d="M5990 8396 c-34 -14 -70 -53 -88 -95 -19 -46 -32 -247 -17 -271 3 -6
3 -10 -2 -10 -4 0 -7 -62 -6 -137 2 -76 2 -165 2 -198 0 -98 2 -128 7 -137 3
-4 2 -8 -3 -8 -4 0 -7 -28 -6 -62 2 -35 3 -88 2 -118 0 -91 2 -123 7 -132 3
-4 2 -8 -3 -8 -4 0 -7 -62 -6 -137 2 -76 2 -165 2 -198 0 -98 2 -128 7 -137 3
-4 2 -8 -3 -8 -7 0 -7 -87 -2 -333 1 -32 -1 -60 -4 -63 -2 -3 -1 -21 3 -40 4
-19 5 -36 1 -39 -12 -7 9 -126 29 -165 23 -45 60 -79 96 -89 25 -6 50 -5 169
13 22 3 60 8 85 11 25 3 58 8 73 11 15 3 44 7 65 9 20 2 51 7 67 10 68 12 102
17 145 21 43 4 72 9 130 19 14 2 48 7 75 10 28 3 77 10 110 15 97 15 149 23
235 35 14 2 52 6 84 10 33 3 62 7 65 10 4 2 35 6 71 10 35 3 67 8 70 10 3 2
29 6 58 9 29 3 63 8 75 11 12 2 42 7 67 10 73 9 101 15 130 30 39 20 85 78 99
124 8 27 11 264 11 824 0 756 -1 787 -19 829 -11 24 -28 52 -38 64 -19 22 -83
69 -83 61 0 -3 -17 -1 -37 4 -21 4 -67 11 -103 15 -36 3 -68 8 -71 10 -3 1
-32 6 -65 9 -32 4 -61 8 -64 10 -3 2 -34 6 -70 10 -36 4 -74 9 -85 11 -10 2
-37 6 -60 9 -22 3 -51 8 -65 10 -14 3 -45 7 -70 11 -25 3 -56 7 -70 9 -14 2
-49 7 -78 10 -29 4 -63 8 -75 11 -12 2 -42 7 -67 10 -25 3 -56 7 -70 9 -14 2
-41 7 -60 9 -19 3 -53 8 -75 11 -22 4 -53 8 -70 10 -81 10 -118 15 -124 19 -3
2 -39 7 -80 10 -40 3 -76 8 -80 10 -8 5 -106 18 -156 21 -22 1 -51 -3 -65 -9z
m145 -82 c16 -3 47 -7 70 -9 22 -2 51 -6 65 -9 22 -5 62 -10 155 -21 17 -2 39
-6 50 -8 11 -3 45 -8 76 -11 31 -4 67 -9 80 -12 13 -2 47 -7 74 -10 28 -3 56
-7 64 -10 8 -3 40 -7 70 -10 31 -3 67 -7 81 -10 14 -3 36 -7 50 -8 38 -5 133
-18 150 -21 26 -5 93 -14 140 -20 25 -4 58 -8 75 -11 16 -3 61 -9 100 -14 38
-5 81 -12 95 -14 14 -2 48 -7 75 -11 28 -3 66 -9 85 -11 46 -7 81 -32 102 -75
17 -31 18 -91 18 -812 0 -703 -2 -782 -16 -814 -25 -52 -48 -64 -149 -78 -22
-4 -51 -8 -65 -10 -14 -2 -50 -7 -80 -11 -30 -4 -57 -8 -60 -9 -25 -5 -105
-16 -148 -20 -29 -3 -56 -7 -60 -9 -4 -2 -36 -7 -72 -11 -36 -4 -74 -9 -85
-11 -11 -3 -39 -6 -62 -8 -22 -2 -49 -7 -60 -10 -10 -3 -47 -8 -82 -11 -35 -3
-67 -7 -70 -9 -3 -2 -28 -7 -56 -10 -67 -8 -139 -19 -212 -30 -16 -3 -64 -10
-108 -16 -44 -6 -91 -12 -105 -15 -14 -2 -47 -7 -75 -11 -27 -3 -59 -7 -70 -9
-11 -2 -45 -6 -75 -10 -30 -4 -57 -9 -59 -11 -11 -10 -45 23 -61 59 -18 39
-19 91 -19 1057 0 699 3 1026 11 1050 6 19 20 45 31 58 22 24 35 24 132 6z"/>
<path d="M6220 7948 c-40 -15 -98 -80 -105 -118 -1 -3 -5 -21 -10 -40 -35
-141 41 -317 144 -335 142 -25 230 211 146 390 -35 75 -118 124 -175 103z"/>
<path d="M7406 7818 c-28 -45 -122 -203 -129 -218 -4 -8 -15 -28 -25 -45 -10
-16 -30 -50 -44 -75 -14 -25 -39 -69 -57 -98 -17 -29 -31 -55 -31 -57 0 -3
-81 -148 -115 -205 -8 -14 -29 -53 -47 -87 -18 -35 -35 -63 -38 -63 -4 0 -38
47 -65 89 -5 9 -12 18 -15 21 -7 6 -72 99 -156 220 -32 47 -64 91 -71 98 -7 7
-13 18 -13 23 0 23 -17 4 -40 -44 -13 -29 -31 -63 -39 -76 -9 -13 -16 -30 -17
-37 -1 -7 -12 -27 -23 -43 -12 -16 -21 -32 -21 -36 0 -7 -56 -122 -95 -195
-11 -19 -19 -37 -20 -40 0 -3 -23 -53 -52 -110 -75 -153 -184 -383 -186 -395
-1 -5 7 -9 18 -8 11 1 47 5 80 8 33 3 87 8 120 11 33 3 76 7 95 9 19 3 67 7
105 10 39 3 88 8 110 10 22 2 69 7 105 10 36 3 81 8 100 10 19 3 64 7 100 10
36 3 80 7 98 10 19 2 71 7 115 10 45 3 93 7 107 10 14 2 57 7 95 10 39 3 88 8
110 10 22 3 65 7 95 10 138 12 175 16 182 23 4 4 3 23 -2 42 -6 19 -23 83 -40
141 -16 58 -31 115 -33 127 -2 12 -6 25 -10 28 -4 4 -7 21 -7 39 0 17 -4 35
-9 40 -5 6 -16 39 -24 75 -9 36 -25 101 -37 145 -12 44 -28 107 -36 140 -17
65 -18 71 -34 130 -6 22 -12 45 -13 50 -1 6 -6 16 -10 23 -5 6 -6 12 -3 12 3
0 -1 18 -9 40 -8 22 -12 40 -10 40 2 0 -2 18 -10 40 -8 22 -12 40 -10 40 2 0
-2 18 -10 39 -7 22 -11 42 -8 45 4 3 3 6 0 6 -4 0 -13 -10 -21 -22z"/>
</g>
</svg>
