<?xml version="1.0" standalone="no"?>
<!DOCTYPE svg PUBLIC "-//W3C//DTD SVG 20010904//EN"
 "http://www.w3.org/TR/2001/REC-SVG-20010904/DTD/svg10.dtd">
<svg version="1.0" xmlns="http://www.w3.org/2000/svg"
 width="654.000000pt" height="654.000000pt" viewBox="0 0 654.000000 654.000000"
 preserveAspectRatio="xMidYMid meet">
<metadata>
Created by potrace 1.14, written by Peter Selinger 2001-2017
</metadata>
<g transform="translate(0.000000,654.000000) scale(0.100000,-0.100000)"
fill="#000000" stroke="none">
<path d="M4871 5835 c-24 -47 -48 -91 -55 -98 -6 -7 -28 -37 -48 -67 -52 -76
-118 -150 -209 -236 -53 -50 -218 -182 -295 -237 -97 -69 -301 -220 -319 -236
-98 -87 -236 -239 -272 -299 -68 -114 -116 -246 -131 -362 -15 -104 -6 -396
13 -490 3 -14 7 -36 10 -50 7 -51 45 -211 51 -222 4 -7 3 -8 -4 -4 -7 4 -12
12 -12 18 0 5 -6 24 -14 41 -7 18 -21 52 -31 77 -10 25 -27 64 -37 87 -10 23
-18 44 -18 48 0 15 -182 374 -243 480 -217 377 -447 645 -696 815 -106 71
-288 158 -369 175 -169 36 -186 38 -327 38 -79 -1 -113 -4 -245 -27 -35 -6
-221 -65 -229 -72 -2 -2 38 -45 90 -96 52 -51 118 -124 147 -163 28 -38 55
-74 60 -80 23 -29 122 -187 122 -195 0 -6 5 -10 11 -10 5 0 8 -4 4 -9 -3 -5
-1 -12 4 -15 14 -9 85 -143 266 -501 167 -330 191 -376 257 -484 21 -34 38
-65 38 -67 0 -2 32 -49 71 -105 67 -94 217 -254 287 -307 69 -51 206 -108 307
-127 52 -10 214 -5 270 8 39 10 110 28 125 32 30 7 96 33 124 48 l29 16 -28 7
c-50 12 -318 172 -345 205 -3 3 -32 28 -65 54 -66 53 -298 283 -387 385 -196
223 -557 728 -703 985 -16 28 -32 52 -35 55 -12 11 -70 113 -67 117 3 2 21
-20 40 -49 69 -101 159 -223 168 -226 5 -2 9 -10 9 -17 0 -7 4 -15 8 -17 4 -1
21 -21 37 -43 17 -21 36 -46 43 -55 7 -8 29 -35 48 -60 19 -25 41 -52 47 -60
23 -30 102 -125 107 -130 3 -3 18 -21 34 -40 96 -117 372 -404 496 -515 121
-109 319 -258 442 -334 75 -45 223 -121 236 -121 8 0 -1 31 -31 113 -4 9 -9
23 -11 30 -2 8 17 38 42 68 26 30 65 77 87 104 22 26 45 53 50 59 9 10 82 96
130 154 11 14 25 30 30 36 6 6 28 34 50 61 22 28 43 52 46 55 12 10 216 287
254 345 22 33 43 62 46 65 6 5 110 175 153 250 55 96 150 290 193 395 25 61
49 119 53 130 5 11 18 50 30 88 12 37 24 67 26 67 12 0 -42 -202 -93 -350 -24
-69 -45 -129 -47 -135 -14 -43 -138 -328 -146 -335 -3 -3 -14 -23 -25 -45 -18
-37 -101 -186 -136 -244 -47 -80 -221 -336 -307 -450 -55 -74 -106 -144 -114
-154 -7 -11 -19 -26 -27 -34 -26 -27 -131 -167 -128 -170 6 -5 129 47 262 113
131 64 250 131 338 192 27 17 52 32 57 32 4 0 10 3 12 8 2 4 32 29 68 57 222
170 388 368 491 582 21 45 39 87 39 93 0 5 4 18 9 28 22 39 54 165 68 264 10
70 10 336 0 418 -14 104 -63 317 -79 335 -4 5 -8 17 -8 28 0 33 -136 367 -150
367 -3 0 -25 -38 -49 -85z"/>
<path d="M6065 3404 c-38 -6 -232 -66 -430 -133 -198 -67 -364 -123 -370 -124
-31 -9 -63 -21 -90 -32 -16 -7 -66 -25 -110 -40 -44 -15 -89 -31 -100 -35 -11
-4 -45 -17 -75 -28 -361 -133 -469 -172 -479 -172 -9 0 -8 -5 3 -15 8 -8 17
-15 21 -15 4 0 12 -6 20 -12 7 -7 21 -20 31 -29 100 -85 132 -204 83 -302 -50
-100 -184 -181 -349 -213 -14 -2 -38 -7 -55 -11 -16 -4 -39 -8 -50 -9 -136
-15 -194 -18 -335 -17 -151 0 -287 8 -350 19 -14 2 -48 7 -76 9 -28 3 -62 8
-75 10 -13 3 -37 7 -54 10 -16 3 -43 8 -60 12 -16 3 -37 7 -45 8 -8 2 -28 5
-45 9 -16 3 -41 8 -54 11 -13 2 -26 7 -30 11 -6 6 15 5 179 -13 55 -6 563 -9
625 -3 11 0 67 8 125 16 58 7 125 16 150 20 64 8 177 39 234 65 61 27 138 102
152 149 33 113 -86 239 -256 270 -82 15 -362 62 -385 65 -22 3 -76 12 -117 20
-39 7 -59 11 -253 45 -93 16 -179 32 -190 34 -11 2 -38 7 -60 11 -22 4 -51 9
-65 11 -14 2 -47 9 -75 16 -27 6 -59 12 -70 13 -11 1 -31 4 -45 8 -14 3 -52
11 -85 18 -33 7 -62 13 -65 14 -3 1 -25 5 -50 9 -25 4 -61 12 -80 17 -105 27
-350 81 -380 84 -19 2 -64 7 -99 10 -161 17 -491 2 -671 -30 -14 -3 -40 -7
-57 -10 -73 -11 -103 -17 -213 -41 -63 -14 -128 -27 -143 -30 -16 -3 -46 -12
-68 -19 -39 -14 -40 -14 -49 11 -6 14 -10 33 -10 42 0 30 -52 91 -96 113 -42
20 -58 21 -384 21 l-339 1 -46 -27 c-25 -15 -58 -46 -73 -68 l-27 -42 -3 -630
c-2 -462 0 -642 9 -674 14 -49 78 -112 131 -128 20 -6 167 -10 368 -9 l335 1
40 26 c79 51 95 91 96 247 0 55 4 103 7 105 24 15 297 21 462 11 115 -7 335
-30 395 -41 10 -2 37 -6 60 -9 22 -4 81 -13 130 -21 50 -8 104 -17 120 -20 17
-2 50 -9 75 -14 25 -5 56 -12 70 -14 14 -3 50 -10 80 -16 30 -6 65 -13 78 -16
33 -6 60 -12 137 -30 39 -8 81 -18 95 -20 14 -3 52 -12 85 -21 33 -8 68 -17
78 -19 10 -2 26 -5 35 -8 9 -3 28 -8 42 -10 14 -3 45 -11 70 -17 25 -6 54 -13
65 -14 11 -2 20 -4 20 -5 0 -1 9 -3 19 -5 11 -2 31 -7 45 -11 14 -4 35 -8 46
-9 46 -6 111 -16 122 -20 52 -17 346 -24 468 -11 128 13 282 59 374 110 31 17
70 38 86 46 17 8 32 17 35 20 3 3 39 22 80 44 94 48 242 126 340 180 41 23 89
48 105 56 17 8 32 17 35 20 3 3 32 19 65 36 142 74 260 138 265 144 3 3 21 12
40 20 19 8 37 16 40 19 3 4 19 13 35 21 17 8 32 17 35 20 3 3 27 16 54 30 27
14 112 60 189 103 77 42 146 77 153 77 7 0 14 4 16 8 2 4 73 45 158 92 85 46
171 92 190 103 19 11 58 32 85 47 148 81 173 95 210 118 22 14 65 51 97 82 47
47 57 64 63 103 8 55 -8 89 -63 128 -88 63 -257 90 -407 63z m-5297 -353 c9
-1 12 -126 12 -589 l0 -587 -284 0 c-156 0 -287 3 -290 6 -5 4 -7 76 -5 149 0
8 0 24 -1 35 -1 11 -1 76 -1 145 0 69 -1 136 -2 150 -2 14 0 36 3 50 4 14 4
36 0 50 -4 14 -3 35 1 47 5 12 4 25 -1 28 -4 3 -5 17 -1 33 4 15 4 39 0 54 -4
14 -5 29 -2 31 3 3 4 36 4 74 0 37 -1 111 0 163 0 52 0 108 -1 123 0 16 2 31
4 35 3 5 472 7 564 3z m2207 -731 c3 -6 -1 -7 -9 -4 -18 7 -21 14 -7 14 6 0
13 -4 16 -10z"/>
<path d="M416 1293 c-6 -14 -5 -15 5 -6 7 7 10 15 7 18 -3 3 -9 -2 -12 -12z"/>
</g>
</svg>
